<svg xmlns="http://www.w3.org/2000/svg" viewBox="0 0 273.68427 273.6842"><defs><style>.a{fill:#555;}.b{fill:#fff;}</style></defs><path class="a" d="M295.07324,345.18945h-86.8081a3,3,0,0,0,0,6h86.8081a3,3,0,0,0,0-6Z" transform="translate(-114.82703 -193.8421)"/><path class="a" d="M295.07324,370.66455h-86.8081a3,3,0,0,0,0,6h86.8081a3,3,0,0,0,0-6Z" transform="translate(-114.82703 -193.8421)"/><path class="a" d="M295.07324,319.71436h-86.8081a3,3,0,0,0,0,6h86.8081a3,3,0,0,0,0-6Z" transform="translate(-114.82703 -193.8421)"/><path class="a" d="M251.66919,193.8421a136.84211,136.84211,0,1,0,136.8421,136.8421A136.84215,136.84215,0,0,0,251.66919,193.8421ZM318.388,394.31018a8.02349,8.02349,0,0,1-8,8H238.85248L207.10529,426.8421V402.31018h-14.155a8.02348,8.02348,0,0,1-8-8V252.162a8.02348,8.02348,0,0,1,8-8h3.464a13.63122,13.63122,0,0,1,6.97094,3.382c4.251,3.88476,6.40674,10.61865,6.40674,20.01416a3.00015,3.00015,0,0,0,3,3H318.388Z" transform="translate(-114.82703 -193.8421)"/><path class="a" d="M205.26514,297.23877a3.00015,3.00015,0,0,0,3,3h86.8081a3,3,0,0,0,0-6h-86.8081A3.00015,3.00015,0,0,0,205.26514,297.23877Z" transform="translate(-114.82703 -193.8421)"/><path class="b" d="M195.07776,238.61935S214.482,236.5768,214.482,265.17248h120.5104s1.82443-26.28585-25.89624-26.93013S195.07776,238.61935,195.07776,238.61935Z" transform="translate(-114.82703 -193.8421)"/></svg>